<?xml version="1.0" standalone="no"?><!DOCTYPE svg PUBLIC "-//W3C//DTD SVG 1.1//EN" "http://www.w3.org/Graphics/SVG/1.1/DTD/svg11.dtd"><svg t="1565142964610" class="icon" viewBox="0 0 1024 1024" version="1.1" xmlns="http://www.w3.org/2000/svg" p-id="6027" xmlns:xlink="http://www.w3.org/1999/xlink" width="32" height="32"><defs><style type="text/css"></style></defs><path d="M236.8 192 384 192c19.2 0 32-12.8 32-32C416 140.8 403.2 128 384 128L160 128c0 0 0 0-6.4 0 0 0-6.4 0-6.4 0C140.8 134.4 134.4 140.8 128 147.2c0 0 0 6.4 0 6.4 0 0 0 0 0 6.4L128 384c0 19.2 12.8 32 32 32S192 403.2 192 384L192 236.8l217.6 217.6c12.8 12.8 32 12.8 44.8 0l0 0c12.8-12.8 12.8-32 0-44.8L236.8 192z" p-id="6028" fill="#0091FF"></path><path d="M864 608C844.8 608 832 620.8 832 640l0 147.2L614.4 569.6c-12.8-12.8-32-12.8-44.8 0l0 0c-12.8 12.8-12.8 32 0 44.8l217.6 217.6L640 832c-19.2 0-32 12.8-32 32 0 19.2 12.8 32 32 32l224 0c0 0 0 0 6.4 0 0 0 6.4 0 6.4 0 6.4-6.4 12.8-12.8 19.2-19.2 0 0 0-6.4 0-6.4 0 0 0 0 0-6.4L896 640C896 620.8 883.2 608 864 608z" p-id="6029" fill="#0091FF"></path></svg>