<svg id="图层_1" data-name="图层 1" xmlns="http://www.w3.org/2000/svg" viewBox="0 0 1000 1000"><defs><style>.cls-1{fill:#f0693e;}.cls-2{fill:#9acecf;}</style></defs><title>未标题-1</title><path class="cls-1" d="M512.36857,512.077a207.10946,207.10946,0,0,1-207.107,207.104,206.45238,206.45238,0,0,0,60.658,146.449l146.449,146.447,146.443-146.447a206.44614,206.44614,0,0,0,60.664-146.449,207.09937,207.09937,0,0,1-207.107-207.104Z" transform="translate(-12.36557 -12.07701)"/><path class="cls-1" d="M865.91857,365.63a206.44842,206.44842,0,0,0-146.443-60.66,207.10961,207.10961,0,0,1-207.107,207.104v.003a207.113,207.113,0,0,1,207.107,207.104,206.44631,206.44631,0,0,0,146.443-60.658l146.447-146.446Z" transform="translate(-12.36557 -12.07701)"/><path class="cls-2" d="M512.36857,512.074h0a207.10278,207.10278,0,0,1,207.107-207.104,206.44668,206.44668,0,0,0-60.664-146.447L512.36857,12.077l-146.449,146.446a206.4655,206.4655,0,0,0-60.658,146.447,207.11288,207.11288,0,0,1,207.107,207.104Z" transform="translate(-12.36557 -12.07701)"/><path class="cls-1" d="M512.36857,512.077v-.003a207.09937,207.09937,0,0,1-207.107-207.104,206.457,206.457,0,0,0-146.449,60.66L12.36557,512.077l146.447,146.446a206.45487,206.45487,0,0,0,146.449,60.658,207.10278,207.10278,0,0,1,207.107-207.104Z" transform="translate(-12.36557 -12.07701)"/></svg>